<svg xmlns="http://www.w3.org/2000/svg" xml:space="preserve" width="655.359" height="655.359" style="shape-rendering:geometricPrecision;text-rendering:geometricPrecision;image-rendering:optimizeQuality;fill-rule:evenodd;clip-rule:evenodd" viewBox="0 0 6.827 6.827"><defs><style>.fil0{fill:#212121;fill-rule:nonzero}</style></defs><g id="Layer_x0020_1"><path class="fil0" d="M1.133 2.56h4.56c.081 0 .156.03.21.076.06.05.097.122.097.201V5.59c0 .08-.037.151-.096.202a.325.325 0 0 1-.21.076h-4.56a.325.325 0 0 1-.211-.076.264.264 0 0 1-.096-.202V2.837c0-.08.037-.15.096-.201a.325.325 0 0 1 .21-.076zm4.56.213h-4.56a.11.11 0 0 0-.072.025c-.013.01-.021.025-.021.04v2.751c0 .015.008.029.021.04a.11.11 0 0 0 .072.024h4.56a.11.11 0 0 0 .072-.024c.014-.011.022-.025.022-.04V2.837c0-.014-.008-.028-.022-.04a.11.11 0 0 0-.072-.024z"/><path class="fil0" d="m3.987 4.305-1.04.6-.16.093v-1.57l.16.093 1.04.6.16.092-.16.092zM3 4.63l.72-.416L3 3.797v.832zM3.093 2.453V1.387h.214v1.066zM3.52 2.453V1.067h.213v1.386zM3.947 2.453v-1.6h.213v1.6zM2.667 2.453v-.746h.213v.746z"/></g><path style="fill:none" d="M0 0h6.827v6.827H0z"/></svg>